<svg xmlns="http://www.w3.org/2000/svg" xmlns:svg="http://www.w3.org/2000/svg" xmlns:xlink="http://www.w3.org/1999/xlink" id="svg824" width="16" height="16" version="1.1"><metadata id="metadata830"/><defs id="defs828"><linearGradient id="linearGradient885"><stop style="stop-color:#ff70ac;stop-opacity:1" id="stop881" offset="0"/><stop style="stop-color:#ff70ac;stop-opacity:1" id="stop891" offset=".157"/><stop id="stop895" offset=".161" style="stop-color:#9f70ff;stop-opacity:1"/><stop style="stop-color:#9f70ff;stop-opacity:1" id="stop897" offset=".277"/><stop id="stop899" offset=".281" style="stop-color:#70deff;stop-opacity:1"/><stop style="stop-color:#70deff;stop-opacity:1" id="stop901" offset=".427"/><stop id="stop903" offset=".429" style="stop-color:#70ffb9;stop-opacity:1"/><stop style="stop-color:#70ffb9;stop-opacity:1" id="stop905" offset=".562"/><stop id="stop907" offset=".571" style="stop-color:#9dff70;stop-opacity:1"/><stop style="stop-color:#9dff70;stop-opacity:1" id="stop909" offset=".715"/><stop id="stop911" offset=".72" style="stop-color:#ffeb70;stop-opacity:1"/><stop style="stop-color:#ffeb70;stop-opacity:1" id="stop913" offset=".86"/><stop id="stop915" offset=".863" style="stop-color:#ff7070;stop-opacity:1"/><stop style="stop-color:#ff7070;stop-opacity:1" id="stop883" offset="1"/></linearGradient><linearGradient id="linearGradient887" x1="7.73" x2="7.718" y1="14.901" y2="1.767" gradientUnits="userSpaceOnUse" xlink:href="#linearGradient885"/></defs><path style="opacity:1;fill:url(#linearGradient887);fill-opacity:1;fill-rule:nonzero;stroke:none;stroke-width:1;stroke-linecap:round;stroke-linejoin:miter;stroke-miterlimit:4;stroke-dasharray:none;stroke-dashoffset:39.99999619;stroke-opacity:1;paint-order:normal" id="path832" d="M 6.2050781 2.3222656 A 3.2083652 3.2083652 0 0 0 2.9980469 5.53125 A 3.2083652 3.2083652 0 0 0 3.0175781 5.8515625 A 3.5249801 3.5249801 0 0 0 0.50585938 9.2246094 A 3.5249801 3.5249801 0 0 0 4.03125 12.75 A 3.5249801 3.5249801 0 0 0 5.5800781 12.388672 A 2.7862117 2.7862117 0 0 0 7.8105469 13.509766 A 2.7862117 2.7862117 0 0 0 10.429688 11.664062 A 2.7862117 2.7862117 0 0 0 12.453125 12.539062 A 2.7862117 2.7862117 0 0 0 15.240234 9.7519531 A 2.7862117 2.7862117 0 0 0 13.337891 7.1113281 A 2.7862117 2.7862117 0 0 0 13.382812 6.6289062 A 2.7862117 2.7862117 0 0 0 10.595703 3.8417969 A 2.7862117 2.7862117 0 0 0 9.1445312 4.2519531 A 3.2083652 3.2083652 0 0 0 6.2050781 2.3222656 z"/></svg>